<svg viewBox="0 0 12 15" xmlns="http://www.w3.org/2000/svg">
    <path
        d="M11.9518 5.01C11.9435 4.986 11.9368 4.96275 11.927 4.9395C11.8915 4.8581 11.8417 4.78369 11.78 4.71975L7.28002 0.21975C7.21609 0.158087 7.14167 0.108309 7.06027 0.0727499C7.03777 0.0622499 7.01377 0.0562499 6.98977 0.0479999C6.92702 0.0266446 6.86169 0.0137806 6.79552 0.00975001C6.77902 0.00825001 6.76477 0 6.74902 0H1.49902C0.671773 0 -0.000976562 0.67275 -0.000976562 1.5V13.5C-0.000976562 14.3273 0.671773 15 1.49902 15H10.499C11.3263 15 11.999 14.3273 11.999 13.5V5.25C11.999 5.23425 11.9908 5.22 11.9893 5.2035C11.9854 5.13762 11.9728 5.07255 11.9518 5.01ZM9.43852 4.5H7.49902V2.5605L9.43852 4.5ZM1.49902 13.5V1.5H5.99902V5.25C5.99902 5.44891 6.07804 5.63968 6.21869 5.78033C6.35935 5.92098 6.55011 6 6.74902 6H10.499L10.5005 13.5H1.49902Z"
    />
</svg>
